<svg width="12" height="12" viewBox="0 0 12 12" fill="none" xmlns="http://www.w3.org/2000/svg">
	<path d="M11.9998 2.26912C12.0057 2.60381 11.8814 2.92773 11.6531 3.17263L5.18996 9.63218C4.94759 9.87411 4.61905 10.01 4.2765 10.01C3.93396 10.01 3.60541 9.87411 3.36305 9.63218L0.346926 6.61772C0.118597 6.37282 -0.00570714 6.0489 0.000201386 5.71421C0.00610991 5.37952 0.141769 5.06018 0.378601 4.82348C0.615432 4.58678 0.934943 4.4512 1.26982 4.44529C1.6047 4.43939 1.9288 4.56362 2.17383 4.79182L4.2765 6.89333L9.82617 1.34673C10.0712 1.11853 10.3953 0.994296 10.7302 1.0002C11.0651 1.00611 11.3846 1.14169 11.6214 1.37839C11.8582 1.61509 11.9939 1.93443 11.9998 2.26912Z" fill="#F2F2F2" />
</svg>
