<svg width="42" height="42" viewBox="0 0 42 42" fill="none" xmlns="http://www.w3.org/2000/svg">
	<path fill-rule="evenodd" clip-rule="evenodd" d="M21 0C9.40227 0 0 9.40227 0 21C0 32.5977 9.40227 42 21 42C32.5977 42 42 32.5977 42 21C42 9.40227 32.5977 0 21 0ZM16.7866 14.7134C16.4389 14.3533 16.2465 13.8711 16.2508 13.3705C16.2552 12.8699 16.4559 12.3911 16.8099 12.0372C17.1639 11.6832 17.6427 11.4824 18.1432 11.4781C18.6438 11.4737 19.126 11.6662 19.4861 12.0139L27.1225 19.6503C27.4804 20.0083 27.6814 20.4938 27.6814 21C27.6814 21.5062 27.4804 21.9917 27.1225 22.3497L19.4861 29.9861C19.126 30.3338 18.6438 30.5263 18.1432 30.5219C17.6427 30.5176 17.1639 30.3168 16.8099 29.9628C16.4559 29.6089 16.2552 29.13 16.2508 28.6295C16.2465 28.1289 16.4389 27.6467 16.7866 27.2866L23.0733 21L16.7866 14.7134Z" fill="url(#paint0_linear_5_50)" />
	<defs>
		<linearGradient id="paint0_linear_5_50" x1="0" y1="21" x2="42" y2="21" gradientUnits="userSpaceOnUse">
			<stop stop-color="#5D3EFF" />
			<stop offset="0.546875" stop-color="#3D4FFF" />
			<stop offset="1" stop-color="#1552FF" />
		</linearGradient>
	</defs>
</svg>
